<?xml version="1.0" encoding="UTF-8"?>
<svg width="512" height="512" viewBox="0 0 512 512" fill="none" xmlns="http://www.w3.org/2000/svg">
  <defs>
    <linearGradient id="frame-stroke" x1="72" y1="40" x2="436" y2="472" gradientUnits="userSpaceOnUse">
      <stop offset="0%" stop-color="#3AE8FF"/>
      <stop offset="55%" stop-color="#16B6FF"/>
      <stop offset="100%" stop-color="#144EFF"/>
    </linearGradient>
    <linearGradient id="frame-fill" x1="92" y1="68" x2="420" y2="444" gradientUnits="userSpaceOnUse">
      <stop offset="0%" stop-color="#111A2A"/>
      <stop offset="100%" stop-color="#050B15"/>
    </linearGradient>
    <radialGradient id="frame-glow" cx="0" cy="0" r="1" gradientUnits="userSpaceOnUse" gradientTransform="translate(190 132) rotate(50) scale(320 280)">
      <stop offset="0%" stop-color="#24354D"/>
      <stop offset="100%" stop-color="#060A12" stop-opacity="0"/>
    </radialGradient>
    <linearGradient id="s-fill" x1="250" y1="122" x2="250" y2="394" gradientUnits="userSpaceOnUse">
      <stop offset="0%" stop-color="#4FE2FF"/>
      <stop offset="48%" stop-color="#1CA8FF"/>
      <stop offset="100%" stop-color="#1451FF"/>
    </linearGradient>
    <linearGradient id="s-stroke" x1="260" y1="126" x2="260" y2="386" gradientUnits="userSpaceOnUse">
      <stop offset="0%" stop-color="#7EFAFF"/>
      <stop offset="100%" stop-color="#2F84FF"/>
    </linearGradient>
    <filter id="panel-shadow" x="34" y="34" width="444" height="444" filterUnits="userSpaceOnUse" color-interpolation-filters="sRGB">
      <feDropShadow dx="0" dy="10" stdDeviation="18" flood-color="#000000" flood-opacity="0.5"/>
    </filter>
    <filter id="s-shadow" x="78" y="88" width="356" height="336" filterUnits="userSpaceOnUse" color-interpolation-filters="sRGB">
      <feDropShadow dx="0" dy="10" stdDeviation="10" flood-color="#000000" flood-opacity="0.46"/>
    </filter>
  </defs>

  <g filter="url(#panel-shadow)">
    <rect x="46" y="46" width="420" height="420" rx="94" fill="url(#frame-fill)"/>
    <rect x="46" y="46" width="420" height="420" rx="94" stroke="url(#frame-stroke)" stroke-width="12"/>
    <rect x="62" y="62" width="388" height="388" rx="78" fill="url(#frame-glow)" opacity="0.85"/>
  </g>

  <g filter="url(#s-shadow)">
    <path
      d="M193.4 123.5H397.6L364.7 182.6H219.5C204.6 182.6 193 194.2 193 209.1C193 221.4 201.7 231.5 213.5 233.6L319 233.7C352.3 233.7 379.3 260.7 379.3 294C379.3 327.4 352.3 354.4 319 354.4H114.4L148.2 295.2H293C307.9 295.2 320 283.1 320 268.2C320 255.4 310 244.9 297.4 244.3H194.1C160.7 244.3 133.7 217.3 133.7 183.9C133.7 150.5 160.5 123.5 193.4 123.5Z"
      fill="url(#s-fill)"
      stroke="url(#s-stroke)"
      stroke-width="4"
      stroke-linejoin="round"
    />
  </g>

  <title>The Snap favicon</title>
</svg>
