<?xml version="1.0" encoding="UTF-8"?>
<!-- Simple square favicon for The Snap. Replace later with branded artwork if desired. -->
<svg width="512" height="512" viewBox="0 0 512 512" fill="none" xmlns="http://www.w3.org/2000/svg">
  <defs>
    <linearGradient id="g" x1="0" y1="0" x2="1" y2="1">
      <stop offset="0%" stop-color="#111"/>
      <stop offset="100%" stop-color="#222"/>
    </linearGradient>
    <linearGradient id="accent" x1="0" y1="0" x2="1" y2="1">
      <stop offset="0%" stop-color="#00C6FF"/>
      <stop offset="100%" stop-color="#0078FF"/>
    </linearGradient>
    <filter id="shadow" x="-20%" y="-20%" width="140%" height="140%" color-interpolation-filters="sRGB">
      <feDropShadow dx="0" dy="4" stdDeviation="12" flood-color="#000" flood-opacity="0.6"/>
    </filter>
  </defs>
  <rect width="512" height="512" rx="96" fill="url(#g)"/>
  <!-- Stylized S (Snap) -->
  <path filter="url(#shadow)" fill="url(#accent)" d="M341.3 144.7c-18.9-18.4-46.5-28.1-83-28.1-34.9 0-62.2 8.2-82 24.5-19.8 16.3-29.7 38.1-29.7 65.3h74.5c0-11 4.2-19.7 12.7-26.1 8.5-6.4 20.4-9.6 35.8-9.6 14.2 0 25.2 3 33 9 7.8 6 11.7 13.7 11.7 23.1 0 8.6-3.7 15.4-11 20.4-7.3 5-19.6 9.6-36.9 13.8l-32.1 7.7c-30 7.2-52 16.6-66 28.3-14 11.7-21 28.6-21 50.6 0 24.4 9.7 44 29.2 58.9 19.5 14.9 46 22.3 79.6 22.3 34.6 0 62-7.5 82.1-22.4 20.1-14.9 30.2-35.1 30.2-60.6h-73.5c0 11.9-4.8 21-14.5 27.4-9.7 6.4-22.9 9.6-39.5 9.6-14.8 0-26.2-2.6-34.3-7.9-8.1-5.3-12.1-12.4-12.1-21.4 0-8.6 3.6-15.3 10.7-20.2 7.1-4.9 19.8-9.6 38.2-14.1l31.2-7.5c28.7-6.8 50.1-16.5 64.2-29.2 14.1-12.7 21.1-29.7 21.1-51 0-26.3-9.4-47.6-28.3-66z"/>
  <title>The Snap</title>
</svg>
